<svg xmlns="http://www.w3.org/2000/svg" width="21.7" height="24.2" viewBox="0 0 21.7 24.2"><defs><style>.a{fill:none;stroke:currentColor;stroke-linecap:round;stroke-linejoin:round;stroke-width:1.7px;}.b{fill:#fdb933;}</style></defs><g transform="translate(-325.65 -58.65)"><path class="a" d="M17.75,20.5H24l-1.756-1.756a2.54,2.54,0,0,1-.744-1.8V13a7.5,7.5,0,0,0-5-7.073V5.5a2.5,2.5,0,1,0-5,0v.427A7.5,7.5,0,0,0,6.5,13v3.948a2.54,2.54,0,0,1-.744,1.8L4,20.5h6.25m7.5,0v1.25a3.75,3.75,0,0,1-7.5,0V20.5m7.5,0h-7.5" transform="translate(322.5 56.5)"/><circle class="b" cx="4.5" cy="4.5" r="4.5" transform="translate(337 61)"/></g></svg>