<svg xmlns="http://www.w3.org/2000/svg" width="18.07" height="14.012" viewBox="0 0 18.07 14.012"><defs><style>.a{fill:currentColor;}</style></defs><g transform="translate(-263 -740)"><g transform="translate(268.329 742.683)"><path class="a" d="M151.529,306.061h2.118a.529.529,0,1,0,0-1.059h-2.118a.529.529,0,1,0,0,1.059Z" transform="translate(-151 -300.979)"/><path class="a" d="M151.529,363.059h2.118a.529.529,0,1,0,0-1.059h-2.118a.529.529,0,1,0,0,1.059Z" transform="translate(-151 -355.965)"/><path class="a" d="M151.529,249.063h2.118a.529.529,0,1,0,0-1.059h-2.118a.529.529,0,1,0,0,1.059Z" transform="translate(-151 -245.992)"/><path class="a" d="M151.529,192.065h2.118a.529.529,0,1,0,0-1.059h-2.118a.529.529,0,1,0,0,1.059Z" transform="translate(-151 -191.006)"/><path class="a" d="M271.529,306.061h2.118a.529.529,0,1,0,0-1.059h-2.118a.529.529,0,0,0,0,1.059Z" transform="translate(-266.765 -300.979)"/><path class="a" d="M271.529,363.059h2.118a.529.529,0,1,0,0-1.059h-2.118a.529.529,0,0,0,0,1.059Z" transform="translate(-266.765 -355.965)"/><path class="a" d="M271.529,249.063h2.118a.529.529,0,0,0,0-1.059h-2.118a.529.529,0,0,0,0,1.059Z" transform="translate(-266.765 -245.992)"/><path class="a" d="M271.529,192.065h2.118a.529.529,0,1,0,0-1.059h-2.118a.529.529,0,0,0,0,1.059Z" transform="translate(-266.765 -191.006)"/></g><path class="a" d="M5.329,115H3.741a.529.529,0,0,0-.529.529v1.624H.529a.529.529,0,0,0-.529.529v10.8a.529.529,0,0,0,.529.529H17.541a.529.529,0,0,0,.529-.529v-10.8a.529.529,0,0,0-.529-.529H14.859v-1.624a.529.529,0,0,0-.529-.529H12.741m2.118,3.212h2.153v9.741H14.859Zm-6.353,9.741H6.388V126.89H8.506Zm3.176,0H9.565V126.89h2.118Zm1.059-11.894H13.8v11.894H12.741v-1.588a.529.529,0,0,0-.529-.529H5.859a.529.529,0,0,0-.529.529v1.588H4.271V116.055H5.329m-4.271,2.153H3.212v9.741H1.059Z" transform="translate(263 625.004)"/></g></svg>