<svg xmlns="http://www.w3.org/2000/svg" width="104" height="104" viewBox="0 0 104 104"><defs><style>.a{fill:rgba(253,185,51,0.15);}.b{fill:none;stroke:#fdb933;stroke-linecap:round;stroke-linejoin:round;stroke-width:4px;}</style></defs><g transform="translate(-136 -258)"><circle class="a" cx="52" cy="52" r="52" transform="translate(136 258)"/><path class="b" d="M25.224,13.112H15.112A10.112,10.112,0,0,0,5,23.224V83.9A10.112,10.112,0,0,0,15.112,94.01H65.673A10.112,10.112,0,0,0,75.785,83.9V23.224A10.112,10.112,0,0,0,65.673,13.112H55.561m-30.337,0A10.112,10.112,0,0,0,35.337,23.224H45.449A10.112,10.112,0,0,0,55.561,13.112m-30.337,0A10.112,10.112,0,0,1,35.337,3H45.449A10.112,10.112,0,0,1,55.561,13.112m-30.337,45.5L35.337,68.729,55.561,48.5" transform="translate(147.5 261.5)"/></g></svg>