<svg xmlns="http://www.w3.org/2000/svg" width="23.668" height="20.993" viewBox="0 0 23.668 20.993"><defs><style>.a{fill:currentColor;}</style></defs><path class="a" d="M23.428,39.4,12.452,29.135a.757.757,0,0,0-1.029,0L.245,39.4a.757.757,0,0,0,1.024,1.115l1.582-1.453V49.167a.757.757,0,0,0,.757.757H9.26a.757.757,0,0,0,.757-.757V44.4h3.81v4.769a.757.757,0,0,0,.757.757h5.677a.757.757,0,0,0,.757-.757V39.223l1.375,1.287A.757.757,0,0,0,23.428,39.4ZM19.5,48.41H15.341V43.641a.757.757,0,0,0-.757-.757H9.26a.757.757,0,0,0-.757.757V48.41H4.365V37.67l7.565-6.95L19.5,37.807Z" transform="translate(0 -28.931)"/></svg>