<svg xmlns="http://www.w3.org/2000/svg" width="17.864" height="16.057" viewBox="0 0 17.864 16.057"><defs><style>.a{fill:none;stroke:currentColor;stroke-linecap:round;stroke-linejoin:round;stroke-width:1.6px;}</style></defs><path class="a" d="M9.325,5.711H4.807A1.807,1.807,0,0,0,3,7.518V15.65a1.807,1.807,0,0,0,1.807,1.807h12.65a1.807,1.807,0,0,0,1.807-1.807V7.518a1.807,1.807,0,0,0-1.807-1.807H12.939m-3.614,0v-.9a1.807,1.807,0,1,1,3.614,0v.9m-3.614,0a1.807,1.807,0,1,0,3.614,0M8.421,12.939a1.807,1.807,0,1,0-1.807-1.807A1.807,1.807,0,0,0,8.421,12.939Zm0,0a2.712,2.712,0,0,1,2.556,1.807M8.421,12.939a2.712,2.712,0,0,0-2.556,1.807m7.978-4.518h2.711m-2.711,3.614H15.65" transform="translate(-2.2 -2.2)"/></svg>