<svg xmlns="http://www.w3.org/2000/svg" width="17.7" height="17.69" viewBox="0 0 17.7 17.69"><defs><style>.a{fill:none;stroke:currentColor;stroke-linecap:round;stroke-linejoin:round;stroke-width:1.7px;}</style></defs><path class="a" d="M11.995,4V5m6,10.993h2m-6,0h-2v4M11.995,9v3m0,0H12m-.01,0H16m-.01,8h4M4,11.995H8m11.993,0H20M5,8H7A1,1,0,0,0,8,7V5A1,1,0,0,0,7,4H5A1,1,0,0,0,4,5V7A1,1,0,0,0,5,8ZM16.992,8h2a1,1,0,0,0,1-1V5a1,1,0,0,0-1-1h-2a1,1,0,0,0-1,1V7A1,1,0,0,0,16.992,8ZM5,19.99H7a1,1,0,0,0,1-1v-2a1,1,0,0,0-1-1H5a1,1,0,0,0-1,1v2A1,1,0,0,0,5,19.99Z" transform="translate(-3.15 -3.15)"/></svg>