<svg xmlns="http://www.w3.org/2000/svg" width="28.444" height="27.24" viewBox="0 0 28.444 27.24"><defs><style>.a{fill:currentColor;}</style></defs><path class="a" d="M14.968,3.558a1.913,1.913,0,0,1,3.638,0l2.046,6.3a1.913,1.913,0,0,0,1.819,1.322h6.621a1.913,1.913,0,0,1,1.124,3.46L24.86,18.528a1.913,1.913,0,0,0-.695,2.139l2.046,6.3A1.913,1.913,0,0,1,23.268,29.1l-5.356-3.892a1.913,1.913,0,0,0-2.249,0L10.306,29.1a1.913,1.913,0,0,1-2.944-2.139l2.046-6.3a1.913,1.913,0,0,0-.695-2.139L3.357,14.637a1.913,1.913,0,0,1,1.124-3.46H11.1a1.913,1.913,0,0,0,1.819-1.322Z" transform="translate(-2.565 -2.236)"/></svg>