<svg xmlns="http://www.w3.org/2000/svg" width="105" height="110" viewBox="0 0 105 110"><defs><style>.a{fill:rgba(253,185,51,0.15);}.b{fill:#fdb933;}</style></defs><g transform="translate(-135 -286)"><circle class="a" cx="52" cy="52" r="52" transform="translate(136 292)"/><g transform="translate(134.293 286)"><g transform="translate(0.707 0)"><g transform="translate(0 0)"><path class="b" d="M118.416,2.119A1.973,1.973,0,0,0,116.7.4,53.911,53.911,0,0,0,71.961,15.785L58.809,28.937,39.825,31.385a1.974,1.974,0,0,0-1.143.562l-18.3,18.3a1.974,1.974,0,0,0,1.036,3.336l13.84,2.563,2.719,2.719-5.79,3.135a1.973,1.973,0,0,0-.456,3.131L53.682,87.091a1.973,1.973,0,0,0,3.131-.456l3.135-5.79,2.719,2.719L65.231,97.4a1.974,1.974,0,0,0,3.336,1.036l18.3-18.3a1.974,1.974,0,0,0,.562-1.143l2.449-18.985,13.152-13.152a54.216,54.216,0,0,0,12.861-20.592A54.218,54.218,0,0,0,118.416,2.119ZM35.554,52.193l-9.733-1.8L41,35.214l13.244-1.708ZM54.6,82.43,36.389,64.216l4.5-2.434L57.037,77.934Zm29-4.608L68.429,93l-1.8-9.733L85.312,64.578Zm16.638-33.755L64.5,79.812l-25.49-25.49L74.752,18.576A50.246,50.246,0,0,1,93.247,6.869a23.615,23.615,0,0,0,18.7,18.7A50.258,50.258,0,0,1,100.242,44.066ZM113.137,21.78a19.687,19.687,0,0,1-16.1-16.1,50.354,50.354,0,0,1,17.627-1.528A50.348,50.348,0,0,1,113.137,21.78Z" transform="translate(-14.776 0)"/><path class="b" d="M211.521,100.639a11.972,11.972,0,0,0,16.931,16.931h0a11.972,11.972,0,0,0-16.932-16.931Zm14.141,14.14a8.022,8.022,0,1,1,0-11.35A8.035,8.035,0,0,1,225.662,114.78Z" transform="translate(-153.47 -71.579)"/><path class="b" d="M41.514,297.546a1.974,1.974,0,0,0-2.791,0L21.791,314.478a1.974,1.974,0,0,0,2.791,2.791l16.931-16.932A1.974,1.974,0,0,0,41.514,297.546Z" transform="translate(-15.818 -218.828)"/><path class="b" d="M85.282,318.052l-7.628,7.628a1.974,1.974,0,0,0,2.791,2.791l7.628-7.628a1.974,1.974,0,0,0-2.791-2.791Z" transform="translate(-56.981 -233.938)"/><path class="b" d="M63.6,361.919a1.974,1.974,0,1,0,1.821,1.218A1.992,1.992,0,0,0,63.6,361.919Z" transform="translate(-45.6 -266.688)"/><path class="b" d="M76.006,366.453c.05.119-.047-.118,0,0Z" transform="translate(-56.183 -270.004)"/><path class="b" d="M43.349,378.407l-1.05,1.05a1.974,1.974,0,0,0,2.791,2.791l1.05-1.05a1.974,1.974,0,0,0-2.791-2.791Z" transform="translate(-30.929 -278.412)"/><path class="b" d="M11.7,312.4a1.974,1.974,0,0,0-2.791,0l-7.628,7.628a1.974,1.974,0,0,0,2.791,2.791l7.628-7.628A1.973,1.973,0,0,0,11.7,312.4Z" transform="translate(-0.707 -229.769)"/><path class="b" d="M47.625,300.264a1.972,1.972,0,1,0-2.124-.825c-.016-.024-.028-.041,0,.008s.022.031.006.008A2,2,0,0,0,47.625,300.264Z" transform="translate(-33.478 -218.395)"/><path class="b" d="M64.432,280.881l1.05-1.05a1.973,1.973,0,1,0-2.791-2.79l-1.05,1.05a1.973,1.973,0,1,0,2.791,2.79Z" transform="translate(-45.182 -203.717)"/></g></g></g></g></svg>